<svg width="24" height="20" viewBox="0 0 24 20" fill="none" xmlns="http://www.w3.org/2000/svg">
<path d="M1.25012 0.56254C1.00148 0.56254 0.763025 0.661312 0.587209 0.837127C0.411394 1.01294 0.312622 1.2514 0.312622 1.50004C0.312622 1.74868 0.411394 1.98714 0.587209 2.16295C0.763025 2.33877 1.00148 2.43754 1.25012 2.43754H3.33137L5.79137 12.2813C6.00043 13.1157 6.74762 13.6875 7.60731 13.6875H19.2979C20.1445 13.6875 20.8636 13.125 21.0857 12.3094L23.5157 3.37504H21.5526L19.297 11.8125H7.60637L5.14731 1.96879C5.04573 1.56494 4.81157 1.20686 4.48232 0.951896C4.15307 0.69693 3.74779 0.559825 3.33137 0.56254H1.25012ZM18.1251 13.6875C16.5829 13.6875 15.3126 14.9579 15.3126 16.5C15.3126 18.0422 16.5829 19.3125 18.1251 19.3125C19.6673 19.3125 20.9376 18.0422 20.9376 16.5C20.9376 14.9579 19.6673 13.6875 18.1251 13.6875ZM9.68762 13.6875C8.14543 13.6875 6.87512 14.9579 6.87512 16.5C6.87512 18.0422 8.14543 19.3125 9.68762 19.3125C11.2298 19.3125 12.5001 18.0422 12.5001 16.5C12.5001 14.9579 11.2298 13.6875 9.68762 13.6875ZM12.5001 0.56254V5.25004H9.68762L13.4376 9.00004L17.1876 5.25004H14.3751V0.56254H12.5001ZM9.68762 15.5625C10.2164 15.5625 10.6251 15.9713 10.6251 16.5C10.6251 17.0288 10.2164 17.4375 9.68762 17.4375C9.15887 17.4375 8.75012 17.0288 8.75012 16.5C8.75012 15.9713 9.15887 15.5625 9.68762 15.5625ZM18.1251 15.5625C18.6539 15.5625 19.0626 15.9713 19.0626 16.5C19.0626 17.0288 18.6539 17.4375 18.1251 17.4375C17.5964 17.4375 17.1876 17.0288 17.1876 16.5C17.1876 15.9713 17.5964 15.5625 18.1251 15.5625Z" fill="black"/>
</svg>
