<svg width="24" height="24" viewBox="0 0 24 24" fill="none" xmlns="http://www.w3.org/2000/svg">
<path d="M6.38586 4.39308L12.0002 10.0074L17.5855 4.42217C17.7089 4.29085 17.8575 4.18581 18.0225 4.11333C18.1874 4.04084 18.3653 4.00242 18.5455 4.00037C18.9313 4.00037 19.3012 4.15361 19.574 4.42638C19.8468 4.69915 20 5.0691 20 5.45486C20.0034 5.63318 19.9703 5.81032 19.9028 5.9754C19.8352 6.14047 19.7347 6.29001 19.6073 6.41483L13.9493 12.0001L19.6073 17.6581C19.847 17.8926 19.9876 18.2102 20 18.5453C20 18.9311 19.8468 19.301 19.574 19.5738C19.3012 19.8466 18.9313 19.9998 18.5455 19.9998C18.3601 20.0075 18.1752 19.9766 18.0024 19.909C17.8296 19.8413 17.6728 19.7385 17.5419 19.6071L12.0002 13.9927L6.40041 19.5925C6.27751 19.7195 6.13069 19.8208 5.96843 19.8907C5.80616 19.9606 5.63165 19.9977 5.45498 19.9998C5.06923 19.9998 4.69927 19.8466 4.42649 19.5738C4.15372 19.301 4.00048 18.9311 4.00048 18.5453C3.99709 18.367 4.03018 18.1899 4.09771 18.0248C4.16524 17.8597 4.26579 17.7102 4.3932 17.5853L10.0512 12.0001L4.3932 6.3421C4.15347 6.10758 4.0129 5.78999 4.00048 5.45486C4.00048 5.0691 4.15372 4.69915 4.42649 4.42638C4.69927 4.15361 5.06923 4.00037 5.45498 4.00037C5.80406 4.00473 6.1386 4.14582 6.38586 4.39308Z" fill="#49454F"/>
</svg>
