<svg width="31" height="30" viewBox="0 0 31 30" fill="none" xmlns="http://www.w3.org/2000/svg">
<path d="M23 18.75H8L3 23.75V3.75C3 3.41848 3.1317 3.10054 3.36612 2.86612C3.60054 2.6317 3.91848 2.5 4.25 2.5H23C23.3315 2.5 23.6495 2.6317 23.8839 2.86612C24.1183 3.10054 24.25 3.41848 24.25 3.75V17.5C24.25 17.8315 24.1183 18.1495 23.8839 18.3839C23.6495 18.6183 23.3315 18.75 23 18.75ZM29.25 11.25V28.75L24.25 23.75H10.5C10.1685 23.75 9.85054 23.6183 9.61612 23.3839C9.3817 23.1495 9.25 22.8315 9.25 22.5V21.25H26.75V10H28C28.3315 10 28.6495 10.1317 28.8839 10.3661C29.1183 10.6005 29.25 10.9185 29.25 11.25ZM10.7375 5C9.65 5 8.775 5.25 8.1 5.7375C7.45 6.25 7.125 6.9625 7.1375 7.95L7.15 7.9875H9.5625C9.575 7.6125 9.6875 7.325 9.9125 7.125C10.144 6.93305 10.4369 6.83098 10.7375 6.8375C11.125 6.8375 11.45 6.9625 11.675 7.1875C11.9 7.425 12 7.75 12 8.125C12 8.525 11.9125 8.8625 11.7125 9.15C11.5375 9.4375 11.275 9.6875 10.95 9.8875C10.3125 10.3125 9.875 10.6875 9.6375 11.025C9.3875 11.35 9.25 11.875 9.25 12.5H11.75C11.75 12.1125 11.8 11.8 11.9125 11.575C12.025 11.35 12.2375 11.125 12.55 10.925C13.1125 10.625 13.575 10.2625 13.9375 9.7625C14.3 9.2625 14.4875 8.75 14.4875 8.125C14.4875 7.175 14.15 6.4125 13.475 5.85C12.8125 5.2875 11.9 5 10.7375 5ZM9.25 13.75V16.25H11.75V13.75H9.25ZM16.75 16.25H19.25V13.75H16.75V16.25ZM16.75 5V12.5H19.25V5H16.75Z" fill="black"/>
</svg>
