<svg width="10" height="10" viewBox="0 0 10 10" fill="none" xmlns="http://www.w3.org/2000/svg">
<path d="M1.79738 1.45149H1.9927L2.05769 1.26729C2.15232 0.99911 2.3278 0.766881 2.55996 0.602615C2.79211 0.43835 3.06949 0.350138 3.35388 0.350138C3.63827 0.350138 3.91566 0.43835 4.14781 0.602615C4.37996 0.766881 4.55544 0.99911 4.65007 1.26729L4.71506 1.45149H4.91038H8.85388C8.92654 1.45149 8.99622 1.48035 9.0476 1.53173C9.09898 1.5831 9.12784 1.65279 9.12784 1.72544C9.12784 1.7981 9.09898 1.86779 9.0476 1.91916C8.99622 1.97054 8.92654 1.9994 8.85388 1.9994H4.91038H4.71506L4.65007 2.18359C4.55544 2.45178 4.37996 2.68401 4.14781 2.84827C3.91566 3.01254 3.63827 3.10075 3.35388 3.10075C3.06949 3.10075 2.79211 3.01254 2.55996 2.84827C2.3278 2.68401 2.15232 2.45178 2.05769 2.18359L1.9927 1.9994H1.79738H1.15388C1.08122 1.9994 1.01154 1.97054 0.960164 1.91916C0.908787 1.86778 0.879923 1.7981 0.879923 1.72544C0.879923 1.65279 0.908787 1.5831 0.960164 1.53173C1.01154 1.48035 1.08122 1.45149 1.15388 1.45149H1.79738ZM2.76978 2.30954L2.96497 2.11435L2.76978 2.30954C2.9247 2.46446 3.1348 2.55149 3.35388 2.55149C3.57296 2.55149 3.78307 2.46446 3.93798 2.30954C4.09289 2.15463 4.17992 1.94452 4.17992 1.72544C4.17992 1.50636 4.09289 1.29626 3.93798 1.14134C3.78307 0.986432 3.57296 0.899403 3.35388 0.899403C3.1348 0.899403 2.9247 0.986432 2.76978 1.14134C2.61487 1.29626 2.52784 1.50636 2.52784 1.72544C2.52784 1.94452 2.61487 2.15463 2.76978 2.30954ZM5.09738 4.75149H5.2927L5.35769 4.56729C5.45232 4.29911 5.62781 4.06688 5.85996 3.90262C6.09211 3.73835 6.36949 3.65014 6.65388 3.65014C6.93827 3.65014 7.21566 3.73835 7.44781 3.90262C7.67996 4.06688 7.85544 4.29911 7.95007 4.56729L8.01506 4.75149H8.21038H8.85388C8.92654 4.75149 8.99622 4.78035 9.0476 4.83173C9.09898 4.8831 9.12784 4.95279 9.12784 5.02544C9.12784 5.0981 9.09898 5.16778 9.0476 5.21916C8.99622 5.27054 8.92654 5.2994 8.85388 5.2994H8.21038H8.01506L7.95007 5.48359C7.85544 5.75178 7.67996 5.98401 7.44781 6.14827C7.21566 6.31254 6.93827 6.40075 6.65388 6.40075C6.36949 6.40075 6.09211 6.31254 5.85996 6.14827C5.6278 5.98401 5.45232 5.75178 5.35769 5.4836L5.2927 5.2994H5.09738H1.15388C1.08122 5.2994 1.01154 5.27054 0.960164 5.21916C0.908787 5.16778 0.879923 5.0981 0.879923 5.02544C0.879923 4.95279 0.908787 4.8831 0.960164 4.83173C1.01154 4.78035 1.08122 4.75149 1.15388 4.75149H5.09738ZM1.79738 8.05149H1.9927L2.05769 7.86729C2.15232 7.59911 2.32781 7.36688 2.55996 7.20262C2.79211 7.03835 3.06949 6.95014 3.35388 6.95014C3.63827 6.95014 3.91566 7.03835 4.14781 7.20262C4.37996 7.36688 4.55544 7.59911 4.65007 7.86729L4.71506 8.05149H4.91038H8.85388C8.92654 8.05149 8.99622 8.08035 9.0476 8.13173C9.09898 8.1831 9.12784 8.25279 9.12784 8.32545C9.12784 8.3981 9.09898 8.46779 9.0476 8.51916C8.99622 8.57054 8.92654 8.5994 8.85388 8.5994H4.91038H4.71506L4.65007 8.7836C4.55544 9.05178 4.37996 9.28401 4.14781 9.44827C3.91566 9.61254 3.63827 9.70075 3.35388 9.70075C3.06949 9.70075 2.79211 9.61254 2.55996 9.44827C2.3278 9.28401 2.15232 9.05178 2.05769 8.7836L1.9927 8.5994H1.79738H1.15388C1.08122 8.5994 1.01154 8.57054 0.960165 8.51916L0.764973 8.71435L0.960164 8.51916C0.908787 8.46779 0.879923 8.3981 0.879923 8.32545C0.879923 8.25279 0.908787 8.1831 0.960164 8.13173C1.01154 8.08035 1.08122 8.05149 1.15388 8.05149H1.79738ZM6.65388 4.1994C6.4348 4.1994 6.2247 4.28643 6.06978 4.44134C5.91487 4.59626 5.82784 4.80636 5.82784 5.02544C5.82784 5.24453 5.91487 5.45463 6.06978 5.60954C6.22469 5.76446 6.4348 5.85149 6.65388 5.85149C6.87296 5.85149 7.08307 5.76446 7.23798 5.60954C7.39289 5.45463 7.47992 5.24453 7.47992 5.02544C7.47992 4.80636 7.39289 4.59626 7.23798 4.44134C7.08307 4.28643 6.87296 4.1994 6.65388 4.1994ZM3.35388 7.4994C3.1348 7.4994 2.9247 7.58643 2.76978 7.74134C2.61487 7.89626 2.52784 8.10637 2.52784 8.32545C2.52784 8.54453 2.61487 8.75463 2.76978 8.90954C2.9247 9.06446 3.1348 9.15149 3.35388 9.15149C3.57296 9.15149 3.78307 9.06446 3.93798 8.90954C4.09289 8.75463 4.17992 8.54453 4.17992 8.32545C4.17992 8.10637 4.09289 7.89626 3.93798 7.74134C3.78307 7.58643 3.57296 7.4994 3.35388 7.4994Z" fill="#121212" stroke="#121212" stroke-width="0.552083"/>
</svg>
