<svg width="41" height="41" viewBox="0 0 41 41" fill="none" xmlns="http://www.w3.org/2000/svg">
<path d="M8.94934 0.0385742H31.5708C36.4195 0.0385742 40.3401 3.96783 40.3401 8.80785V31.4293C40.3401 36.278 36.4108 40.1986 31.5708 40.1986H8.94934C4.10064 40.1986 0.180054 36.2693 0.180054 31.4293V8.80785C0.180054 3.95916 4.10932 0.0385742 8.94934 0.0385742Z" fill="url(#paint0_linear_3_3137)"/>
<path d="M15.9195 20.1747C15.9195 17.7493 17.8894 15.7794 20.3147 15.7794C22.7401 15.7794 24.71 17.7493 24.71 20.1747C24.71 22.6001 22.7401 24.57 20.3147 24.57C17.8894 24.57 15.9195 22.6001 15.9195 20.1747ZM13.5396 20.1747C13.5396 23.9209 16.5685 26.9498 20.3147 26.9498C24.0495 26.9498 27.0898 23.9209 27.0898 20.1747C27.0898 16.4285 24.0609 13.3996 20.3147 13.3996C16.5685 13.3996 13.5396 16.4285 13.5396 20.1747ZM25.7689 13.1263C25.7689 13.4452 25.86 13.7412 26.0308 14.0031C26.2016 14.265 26.4521 14.47 26.7368 14.5838C27.0214 14.7091 27.3403 14.7319 27.6477 14.6749C27.9552 14.618 28.2398 14.4586 28.4562 14.2422C28.6725 14.0259 28.8319 13.7412 28.8889 13.4338C28.9458 13.1263 28.923 12.8075 28.7978 12.5229C28.6725 12.2382 28.479 11.9877 28.2171 11.8169C27.9552 11.6461 27.6477 11.555 27.3403 11.555C26.919 11.555 26.5205 11.7258 26.2244 12.0218C25.9397 12.3065 25.7689 12.705 25.7689 13.1263ZM14.9857 30.9123C13.6991 30.8554 13.0045 30.639 12.5376 30.4569C11.9227 30.2177 11.4787 29.9331 11.0232 29.4662C10.5563 28.9994 10.2717 28.5667 10.0326 27.9518C9.85037 27.4849 9.63401 26.7903 9.57708 25.5037C9.50876 24.1145 9.49738 23.6932 9.49738 20.1747C9.49738 16.6562 9.50876 16.2349 9.57708 14.8457C9.63401 13.559 9.85037 12.8644 10.0326 12.3976C10.2717 11.7827 10.5563 11.3386 11.0232 10.8832C11.49 10.4163 11.9227 10.1317 12.5376 9.89253C13.0045 9.71035 13.6991 9.494 14.9857 9.43706C16.3749 9.36874 16.7962 9.35736 20.3147 9.35736C23.8332 9.35736 24.2545 9.36874 25.6437 9.43706C26.9304 9.494 27.6249 9.71035 28.0918 9.89253C28.7067 10.1317 29.1508 10.4163 29.6062 10.8832C30.0731 11.35 30.3578 11.7827 30.5969 12.3976C30.7791 12.8644 30.9954 13.559 31.0523 14.8457C31.1207 16.2349 31.1321 16.6562 31.1321 20.1747C31.1321 23.6932 31.1207 24.1145 31.0523 25.5037C30.9954 26.7903 30.7791 27.4849 30.5969 27.9518C30.3578 28.5667 30.0731 29.0107 29.6062 29.4662C29.1394 29.9217 28.7067 30.2177 28.0918 30.4569C27.6249 30.639 26.9304 30.8554 25.6437 30.9123C24.2545 30.9806 23.8332 30.992 20.3147 30.992C16.7962 30.992 16.3749 30.9693 14.9857 30.9123ZM14.8719 7.05725C13.4713 7.12557 12.5034 7.34191 11.6722 7.67213C10.8068 8.01373 10.0667 8.45781 9.33797 9.19794C8.60922 9.93808 8.15374 10.6668 7.81214 11.5322C7.48193 12.3748 7.26559 13.3313 7.19727 14.7319C7.12895 16.1438 7.11755 16.5879 7.11755 20.1747C7.11755 23.7615 7.12895 24.2056 7.19727 25.6175C7.26559 27.0181 7.48193 27.9859 7.81214 28.8172C8.15374 29.6826 8.59783 30.4227 9.33797 31.1514C10.0667 31.8802 10.8068 32.3357 11.6722 32.6773C12.5148 33.0075 13.4713 33.2238 14.8719 33.2921C16.2838 33.3605 16.7279 33.3718 20.3147 33.3718C23.9015 33.3718 24.3456 33.3605 25.7575 33.2921C27.1581 33.2238 28.1146 33.0075 28.9572 32.6773C29.8226 32.3357 30.5627 31.8916 31.2914 31.1514C32.0202 30.4227 32.4757 29.6826 32.8173 28.8172C33.1475 27.9746 33.3638 27.0181 33.4321 25.6175C33.5005 24.2056 33.5119 23.7615 33.5119 20.1747C33.5119 16.5879 33.5005 16.1438 33.4321 14.7319C33.3638 13.3313 33.1475 12.3634 32.8173 11.5322C32.4757 10.6668 32.0316 9.92669 31.2914 9.19794C30.5627 8.4692 29.8226 8.01373 28.9572 7.67213C28.1146 7.34191 27.1581 7.12557 25.7575 7.05725C24.3456 6.98893 23.9015 6.97754 20.3147 6.97754C16.7279 6.97754 16.2838 6.98893 14.8719 7.05725Z" fill="white"/>
<defs>
<linearGradient id="paint0_linear_3_3137" x1="39.9572" y1="39.8129" x2="-0.206292" y2="-0.350438" gradientUnits="userSpaceOnUse">
<stop stop-color="#FBE18A"/>
<stop offset="0.21" stop-color="#FCBB45"/>
<stop offset="0.38" stop-color="#F75274"/>
<stop offset="0.52" stop-color="#D53692"/>
<stop offset="0.74" stop-color="#8F39CE"/>
<stop offset="1" stop-color="#5B4FE9"/>
</linearGradient>
</defs>
</svg>
