<svg width="42" height="20" viewBox="0 0 42 20" fill="none" xmlns="http://www.w3.org/2000/svg">
<g clip-path="url(#clip0_3_4864)">
<mask id="mask0_3_4864" style="mask-type:luminance" maskUnits="userSpaceOnUse" x="0" y="0" width="42" height="15">
<path d="M42 0H0V14.7781H42V0Z" fill="white"/>
</mask>
<g mask="url(#mask0_3_4864)">
<path d="M9.66402 7.51557L13.5255 3.44944C13.3679 3.16645 13.1904 2.8962 12.9947 2.64091L10.2186 5.56411L9.34493 4.64251L12.1276 1.71291C11.7652 1.39465 11.3699 1.12056 10.949 0.89584C9.79746 0.286322 8.52306 -0.0210729 7.23437 -0.000159693C5.9456 -0.0207635 4.67119 0.287 3.51974 0.896907C2.44039 1.4725 1.54249 2.365 0.934599 3.46651C0.2922 4.66134 -0.0309004 6.01706 -0.00038849 7.38971C-0.0310176 8.76254 0.292087 10.1185 0.934599 11.3134C1.54212 12.4142 2.43927 13.3063 3.51772 13.882C4.66931 14.4913 5.9437 14.7985 7.23235 14.7774C8.52099 14.7985 9.79537 14.4912 10.947 13.882C11.592 13.5378 12.1755 13.0785 12.6716 12.5246L9.662 9.35557C9.43058 9.1114 9.30062 8.78053 9.30062 8.43557C9.30062 8.09061 9.43058 7.75974 9.662 7.51557M8.49706 9.24304C8.34215 9.43895 8.14821 9.59657 7.929 9.70475C7.70978 9.81293 7.47064 9.869 7.22855 9.869C6.98645 9.869 6.74732 9.81293 6.5281 9.70475C6.30888 9.59657 6.11494 9.43895 5.96003 9.24304C5.59314 8.70568 5.41695 8.04981 5.46215 7.38971C5.41664 6.72763 5.59755 6.07025 5.97219 5.53637C6.12389 5.33827 6.3163 5.17899 6.53493 5.07054C6.75356 4.96208 6.99271 4.90727 7.23437 4.91024C7.47603 4.90727 7.71518 4.96208 7.93381 5.07054C8.15244 5.17899 8.34485 5.33827 8.49655 5.53637C8.87119 6.07025 9.05211 6.72763 9.00659 7.38971C9.05215 8.05179 8.87123 8.70919 8.49655 9.24304" fill="#002766"/>
<path d="M14.4696 7.3888C14.479 6.4794 14.3457 5.57461 14.0751 4.71094L10.5382 8.4352L13.4354 11.4859C13.4693 11.4288 13.5027 11.3712 13.5367 11.3131C14.1793 10.1179 14.5024 8.76181 14.4716 7.3888M12.8726 9.00534C12.8726 8.87665 12.9089 8.75085 12.9768 8.64385C13.0447 8.53685 13.1412 8.45345 13.2541 8.4042C13.367 8.35495 13.4913 8.34207 13.6111 8.36717C13.731 8.39228 13.8411 8.45425 13.9275 8.54525C14.0139 8.63624 14.0728 8.75218 14.0966 8.8784C14.1205 9.00462 14.1082 9.13544 14.0615 9.25434C14.0147 9.37323 13.9355 9.47485 13.8339 9.54635C13.7322 9.61784 13.6128 9.656 13.4906 9.656C13.3267 9.656 13.1695 9.58745 13.0536 9.46543C12.9377 9.34341 12.8726 9.17791 12.8726 9.00534Z" fill="#002766"/>
<path d="M20.1509 5.67524L16.6561 1.99524L16.1693 2.50777V9.86937L20.1509 5.67524Z" fill="#002766"/>
<path d="M21.5575 2.8395V0.18083H16.1684V0.807497C16.3954 0.708048 16.6449 0.680307 16.8866 0.727659C17.1282 0.775012 17.3516 0.89541 17.5294 1.07416L21.0242 4.75416C21.2558 4.9981 21.3859 5.32894 21.3859 5.6739C21.3859 6.01885 21.2558 6.34969 21.0242 6.59363L16.1674 11.7078V14.5963H21.5575V8.69336C21.5575 7.73905 21.7963 7.07434 22.2737 6.69923C22.9482 6.2695 23.7335 6.07276 24.5195 6.13656H26.0491V0.0784302C25.1733 0.0837896 24.3162 0.344845 23.5729 0.832563C22.7726 1.34225 22.0854 2.02659 21.5575 2.8395ZM17.6347 13.3728L16.761 12.4528L20.4691 8.5483L21.3428 9.46936L17.6347 13.3728Z" fill="#002766"/>
<path d="M36.611 0.180298V7.82403C36.6405 8.4135 36.4582 8.99307 36.1004 9.4475C35.7255 9.83281 35.2223 10.0485 34.6984 10.0485C34.1745 10.0485 33.6714 9.83281 33.2965 9.4475C32.9313 8.99675 32.7444 8.41564 32.7743 7.82403V0.180298H27.408V8.53976C27.408 10.4313 27.8489 11.9311 28.7309 13.039C29.1826 13.5936 29.749 14.0318 30.3866 14.3199C31.0243 14.608 31.7161 14.7383 32.4091 14.7008C33.2856 14.7249 34.1526 14.5041 34.9218 14.0608C35.6028 13.6577 36.1817 13.0879 36.6094 12.3995V14.5979H41.9985V0.180298H36.611Z" fill="#002766"/>
</g>
<path d="M1.57511 18.0485V17.1792H2.01121C2.3303 17.1792 2.46705 17.3472 2.46705 17.6139C2.46705 17.8805 2.3308 18.0485 2.01121 18.0485H1.57511ZM3.2825 17.6139C3.2825 16.9765 2.87731 16.4976 2.07198 16.4976H0.772827V19.9643H1.57511V18.7195H2.07249C2.22279 18.7415 2.37582 18.7293 2.52131 18.6839C2.66679 18.6385 2.80136 18.5608 2.91597 18.456C3.03058 18.3513 3.12259 18.222 3.18581 18.0767C3.24903 17.9315 3.282 17.7736 3.2825 17.6139ZM10.2544 19.9653H11.0567V16.4987H10.2544V17.8571H9.00589V16.4987H8.2036V19.9653H9.00589V18.5376H10.2544V19.9653ZM19.3789 18.2213C19.3846 17.9868 19.3449 17.7535 19.2623 17.5357C19.1797 17.3178 19.0559 17.1199 18.8983 16.954C18.7408 16.7881 18.5529 16.6577 18.346 16.5707C18.1391 16.4837 17.9175 16.442 17.6948 16.448C17.4717 16.4421 17.2497 16.4839 17.0423 16.5708C16.835 16.6577 16.6464 16.7879 16.4882 16.9537C16.3299 17.1194 16.2051 17.3171 16.1214 17.535C16.0377 17.7529 15.9968 17.9863 16.0011 18.2213C15.9967 18.4565 16.0376 18.6903 16.1212 18.9084C16.2049 19.1266 16.3295 19.3247 16.4878 19.4908C16.646 19.6569 16.8345 19.7876 17.0419 19.875C17.2493 19.9624 17.4714 20.0048 17.6948 19.9995C17.9176 20.0044 18.1391 19.9618 18.3458 19.8741C18.5525 19.7865 18.7402 19.6556 18.8976 19.4894C19.0549 19.3232 19.1787 19.1251 19.2613 18.9072C19.3439 18.6893 19.3843 18.4559 19.3789 18.2213ZM16.8221 18.2213C16.8073 18.0928 16.8191 17.9624 16.8565 17.8391C16.894 17.7158 16.9562 17.6024 17.0391 17.5067C17.1219 17.4111 17.2234 17.3353 17.3365 17.2847C17.4497 17.234 17.5719 17.2097 17.6948 17.2133C17.8172 17.2107 17.9388 17.2357 18.0513 17.2867C18.1638 17.3378 18.2646 17.4136 18.3469 17.5092C18.4291 17.6047 18.491 17.7177 18.5283 17.8406C18.5655 17.9634 18.5774 18.0933 18.5629 18.2213C18.5766 18.3493 18.5642 18.4788 18.5267 18.6013C18.4891 18.7238 18.4272 18.8365 18.3451 18.9318C18.263 19.0272 18.1625 19.103 18.0504 19.1543C17.9383 19.2056 17.817 19.2312 17.6948 19.2293C17.5721 19.232 17.4503 19.207 17.3376 19.156C17.2249 19.1051 17.1238 19.0293 17.0411 18.9339C16.9584 18.8384 16.896 18.7255 16.8582 18.6026C16.8203 18.4797 16.8084 18.3497 16.8221 18.2213ZM26.4723 16.4971V18.6459L25.1301 16.4976H24.3278V19.9643H25.1301V17.824L26.4718 19.9632H27.2726V16.4965L26.4723 16.4971ZM34.3772 16.4971H32.3593V19.9637H34.3767V19.2869H33.1611V18.5264H34.2354V17.8773H33.1616V17.176H34.3772V16.4971ZM41.7943 18.9323C41.7943 17.7712 40.1664 18.0432 40.1664 17.4389C40.1646 17.3934 40.1724 17.348 40.1893 17.3061C40.2062 17.2641 40.2317 17.2266 40.264 17.1964C40.2964 17.1661 40.3347 17.1438 40.3763 17.131C40.4178 17.1183 40.4615 17.1154 40.5042 17.1227C40.5519 17.119 40.5997 17.1256 40.6449 17.1419C40.6901 17.1583 40.7316 17.184 40.7671 17.2177C40.8026 17.2514 40.8312 17.2923 40.8513 17.3379C40.8715 17.3835 40.8826 17.4329 40.8841 17.4832H41.7522C41.7193 16.8213 41.2361 16.4459 40.5184 16.4459C39.8286 16.4459 39.3175 16.8112 39.3175 17.4683C39.3079 18.6981 40.955 18.3525 40.955 18.9947C40.955 19.1973 40.8031 19.3205 40.5701 19.3205C40.5182 19.3249 40.466 19.318 40.4167 19.3002C40.3675 19.2823 40.3223 19.254 40.284 19.2168C40.2456 19.1797 40.215 19.1347 40.194 19.0845C40.173 19.0344 40.162 18.9802 40.1618 18.9253H39.3069C39.3302 19.6267 39.8838 19.9973 40.5924 19.9973C40.7389 20.018 40.8878 20.0063 41.0298 19.9628C41.1717 19.9193 41.3034 19.845 41.4165 19.7448C41.5295 19.6446 41.6215 19.5206 41.6864 19.3807C41.7513 19.2409 41.7877 19.0883 41.7933 18.9328L41.7943 18.9323Z" fill="#002766"/>
</g>
<defs>
<clipPath id="clip0_3_4864">
<rect width="42" height="20" fill="white"/>
</clipPath>
</defs>
</svg>
