<svg width="24" height="25" viewBox="0 0 24 25" fill="none" xmlns="http://www.w3.org/2000/svg">
<path d="M20 12.5H10.5M18 15.5L21 12.5L18 9.5M13 7.5V6.5C13 5.96957 12.7893 5.46086 12.4142 5.08579C12.0391 4.71071 11.5304 4.5 11 4.5H6C5.46957 4.5 4.96086 4.71071 4.58579 5.08579C4.21071 5.46086 4 5.96957 4 6.5V18.5C4 19.0304 4.21071 19.5391 4.58579 19.9142C4.96086 20.2893 5.46957 20.5 6 20.5H11C11.5304 20.5 12.0391 20.2893 12.4142 19.9142C12.7893 19.5391 13 19.0304 13 18.5V17.5" stroke="black" stroke-width="2" stroke-linecap="round" stroke-linejoin="round"/>
</svg>
