<svg width="16" height="16" viewBox="0 0 16 16" fill="none" xmlns="http://www.w3.org/2000/svg">
<path d="M8.00002 0.666687C7.15132 0.666687 6.33738 0.997812 5.73725 1.58722C5.13713 2.17663 4.79998 2.97603 4.79998 3.80958V8.0001C4.79998 8.83365 5.13713 9.63306 5.73725 10.2225C6.33738 10.8119 7.15132 11.143 8.00002 11.143C8.84872 11.143 9.66266 10.8119 10.2628 10.2225C10.8629 9.63306 11.2001 8.83365 11.2001 8.0001V3.80958C11.2001 2.97603 10.8629 2.17663 10.2628 1.58722C9.66266 0.997812 8.84872 0.666687 8.00002 0.666687ZM10.1334 8.0001C10.1334 8.5558 9.90861 9.08874 9.50853 9.48168C9.10845 9.87461 8.56582 10.0954 8.00002 10.0954C7.43422 10.0954 6.89159 9.87461 6.49151 9.48168C6.09143 9.08874 5.86666 8.5558 5.86666 8.0001V3.80958C5.86666 3.25388 6.09143 2.72094 6.49151 2.32801C6.89159 1.93507 7.43422 1.71432 8.00002 1.71432C8.56582 1.71432 9.10845 1.93507 9.50853 2.32801C9.90861 2.72094 10.1334 3.25388 10.1334 3.80958V8.0001ZM3.19997 7.47629C3.34142 7.47629 3.47707 7.53148 3.57709 7.62971C3.67711 7.72794 3.7333 7.86118 3.7333 8.0001C3.7333 9.1115 4.18283 10.1774 4.983 10.9633C5.78316 11.7491 6.86842 12.1906 8.00002 12.1906C9.13162 12.1906 10.2169 11.7491 11.017 10.9633C11.8172 10.1774 12.2667 9.1115 12.2667 8.0001C12.2667 7.86118 12.3229 7.72794 12.4229 7.62971C12.523 7.53148 12.6586 7.47629 12.8001 7.47629C12.9415 7.47629 13.0772 7.53148 13.1772 7.62971C13.2772 7.72794 13.3334 7.86118 13.3334 8.0001C13.3334 10.7166 11.2283 12.9502 8.53283 13.2121L8.53336 13.2383V14.8097C8.53336 14.9486 8.47717 15.0819 8.37715 15.1801C8.27713 15.2783 8.14147 15.3335 8.00002 15.3335C7.85857 15.3335 7.72291 15.2783 7.62289 15.1801C7.52287 15.0819 7.46668 14.9486 7.46668 14.8097V13.2383L7.46721 13.2121C4.77172 12.9502 2.66663 10.7171 2.66663 8.0001C2.66663 7.86118 2.72282 7.72794 2.82284 7.62971C2.92286 7.53148 3.05851 7.47629 3.19997 7.47629Z" fill="#707070"/>
</svg>
