<svg width="31" height="30" viewBox="0 0 31 30" fill="none" xmlns="http://www.w3.org/2000/svg">
<g clip-path="url(#clip0_3_4899)">
<path d="M29.6057 17.1561L22.1437 24.4218C21.2771 25.3007 19.9773 25.9218 18.6053 25.9218H12.9967C12.2866 25.9218 11.6488 26.1913 11.1794 26.6483L9.31388 28.3593H0.816833L8.98892 20.2968L8.97688 20.285C9.84344 19.4413 11.059 18.9139 12.395 18.9022H20.4587C21.3132 18.9022 21.9993 19.5702 21.9993 20.4022C21.9993 21.2343 21.3132 21.9022 20.4587 21.9022H13.9596C13.6828 21.8788 13.4541 22.1014 13.4541 22.3944C13.4541 22.6874 13.6828 22.8983 13.9716 22.8983H20.4347C21.1207 22.9218 21.7706 22.6405 22.252 22.1718C22.7334 21.703 22.9982 21.0585 22.9982 20.4022C23.0223 20.0975 22.938 19.7694 22.8297 19.4882L27.4152 15.0233C28.029 14.4257 28.9919 14.4257 29.5936 14.9999C30.2195 15.5975 30.2075 16.5702 29.6057 17.1561ZM8.39918 9.60925C8.39918 5.24988 11.9858 1.71082 16.4629 1.71082C20.9401 1.71082 24.5508 5.22644 24.5508 9.58582C24.5508 13.9452 20.9281 17.4608 16.475 17.4608C12.0219 17.4608 8.39918 13.9452 8.39918 9.60925ZM17.5341 11.4257C17.5341 11.9647 17.0768 12.3632 16.15 12.3632C15.2835 12.3632 14.4771 12.0702 13.9596 11.8241L13.5504 13.4178C14.0197 13.6757 14.9946 13.9218 15.9575 13.9218V15.1171H17.0768V13.8866C18.7136 13.535 19.4839 12.5858 19.4839 11.3553C19.4839 10.1249 18.7738 9.36316 17.2453 8.8241C16.138 8.37878 15.6205 8.16785 15.6205 7.61707C15.6205 7.21863 16.0658 6.82019 16.8842 6.82019C17.7026 6.82019 18.3044 7.06628 18.6775 7.21863L19.1348 5.66003C18.6414 5.40222 17.9674 5.21472 17.0406 5.21472V3.99597H15.9213V5.29675C14.429 5.58972 13.6105 6.52722 13.6105 7.73425C13.6105 9.03503 14.5373 9.7616 16.0176 10.2655C17.0888 10.6639 17.5341 10.8866 17.5341 11.4257Z" fill="black"/>
</g>
<defs>
<clipPath id="clip0_3_4899">
<rect width="30.8108" height="30" fill="white" transform="translate(0.0946045)"/>
</clipPath>
</defs>
</svg>
