<svg width="33" height="30" viewBox="0 0 33 30" fill="none" xmlns="http://www.w3.org/2000/svg">
<path fill-rule="evenodd" clip-rule="evenodd" d="M16.5 7.54688C16.8256 7.23473 17.2145 6.98682 17.6439 6.81776C18.0732 6.64871 18.5343 6.56191 19 6.5625H27C27.743 6.5625 28.39 6.94125 28.734 7.50282C28.804 7.61625 28.83 7.74657 28.83 7.87782V10.0284L29.5 23.9063C29.5 24.5279 29.2366 25.124 28.7678 25.5635C28.2989 26.0031 27.663 26.25 27 26.25H6C5.33696 26.25 4.70107 26.0031 4.23223 25.5635C3.76339 25.124 3.5 24.5279 3.5 23.9063L4.17 10.0284V7.87782C4.17 7.74657 4.196 7.61625 4.266 7.50282C4.44124 7.21692 4.69384 6.97944 4.9983 6.81434C5.30275 6.64924 5.64828 6.56237 6 6.5625H14C14.98 6.5625 15.865 6.93938 16.5 7.54688Z" fill="#B4ACBC"/>
<path d="M18.232 28.125H29C29.83 28.125 30.501 27.4893 30.501 26.714V25.725C30.501 24.9496 29.831 23.4365 29 23.4365H4C3.171 23.4375 2.5 24.9506 2.5 25.7259V26.7234C2.5 27.4987 3.17 28.125 4.001 28.125H14.768C14.9435 28.41 15.196 28.6466 15.5 28.8112C15.8041 28.9757 16.1489 29.0624 16.5 29.0624C16.8511 29.0624 17.1959 28.9757 17.5 28.8112C17.804 28.6466 18.0565 28.41 18.232 28.125Z" fill="#A4A4A4"/>
<path fill-rule="evenodd" clip-rule="evenodd" d="M4.001 9.375H14.5V10.3125H18.5V9.375H28.999C29.829 9.375 30.5 10.0012 30.5 10.7766V25.7766C30.5 26.5519 29.83 27.1875 28.999 27.1875H18.232C18.0565 27.4725 17.804 27.7092 17.5 27.8737C17.1959 28.0383 16.8511 28.1249 16.5 28.1249C16.1489 28.1249 15.8041 28.0383 15.5 27.8737C15.196 27.7092 14.9435 27.4725 14.768 27.1875H4C3.171 27.1875 2.5 26.5612 2.5 25.7859V10.7766C2.5 10.0012 3.17 9.375 4.001 9.375ZM18 25.7812C18 26.1542 17.842 26.5119 17.5607 26.7756C17.2794 27.0393 16.8978 27.1875 16.5 27.1875C16.1022 27.1875 15.7206 27.0393 15.4393 26.7756C15.158 26.5119 15 26.1542 15 25.7812C15 25.4083 15.158 25.0506 15.4393 24.7869C15.7206 24.5232 16.1022 24.375 16.5 24.375C16.8978 24.375 17.2794 24.5232 17.5607 24.7869C17.842 25.0506 18 25.4083 18 25.7812Z" fill="black"/>
<path d="M13.5 7.5H6.303C6.05607 7.50002 5.81296 7.55719 5.59525 7.66643C5.37754 7.77568 5.19197 7.93363 5.055 8.12625L3.5 10.3125V23.9062C3.5 24.2792 3.65804 24.6369 3.93934 24.9006C4.22064 25.1643 4.60218 25.3125 5 25.3125H28C28.3978 25.3125 28.7794 25.1643 29.0607 24.9006C29.342 24.6369 29.5 24.2792 29.5 23.9062V10.3125L27.945 8.12625C27.808 7.93363 27.6225 7.77568 27.4048 7.66643C27.187 7.55719 26.9439 7.50002 26.697 7.5H19.5V10.3125H13.5V7.5Z" fill="#B4ACBC"/>
<path d="M6 7.5H14C14.663 7.5 15.2989 7.74693 15.7678 8.18647C16.2366 8.62601 16.5 9.22215 16.5 9.84375V25.3125L16.053 24.4744C15.8869 24.1627 15.6314 23.9006 15.3152 23.7174C14.999 23.5343 14.6347 23.4373 14.263 23.4375H6C5.73478 23.4375 5.48043 23.3387 5.29289 23.1629C5.10536 22.9871 5 22.7486 5 22.5V8.4375C5 8.18886 5.10536 7.9504 5.29289 7.77459C5.48043 7.59877 5.73478 7.5 6 7.5ZM19 7.5H27C27.2652 7.5 27.5196 7.59877 27.7071 7.77459C27.8946 7.9504 28 8.18886 28 8.4375V22.5C28 22.7486 27.8946 22.9871 27.7071 23.1629C27.5196 23.3387 27.2652 23.4375 27 23.4375H18.736C18.3836 23.4375 18.0374 23.5248 17.7325 23.6906C17.4277 23.8564 17.175 24.0948 17 24.3816V8.4375C17.456 7.86844 18.182 7.5 19 7.5Z" fill="#F3EEF8"/>
</svg>
