<svg width="31" height="30" viewBox="0 0 31 30" fill="none" xmlns="http://www.w3.org/2000/svg">
<g clip-path="url(#clip0_3_4920)">
<path d="M25.5 15V7.18625C25.5001 7.08758 25.4807 6.98987 25.4429 6.8987C25.4052 6.80754 25.3498 6.72473 25.28 6.655L21.345 2.72C21.2045 2.57931 21.0138 2.50018 20.815 2.5H6.25C6.05109 2.5 5.86032 2.57902 5.71967 2.71967C5.57902 2.86032 5.5 3.05109 5.5 3.25V26.75C5.5 26.9489 5.57902 27.1397 5.71967 27.2803C5.86032 27.421 6.05109 27.5 6.25 27.5H16.75M10.5 12.5H20.5M10.5 7.5H15.5M10.5 17.5H14.25" stroke="black" stroke-width="1.875" stroke-linecap="round" stroke-linejoin="round"/>
<path d="M20.5 2.5V6.75C20.5 6.94891 20.579 7.13968 20.7197 7.28033C20.8603 7.42098 21.0511 7.5 21.25 7.5H25.5M25.49 18.9062L28.685 19.7175C29.0175 19.8025 29.2513 20.105 29.2413 20.4475C29.0263 27.645 24.875 28.75 24.875 28.75C24.875 28.75 20.7237 27.645 20.5087 20.4475C20.5049 20.2808 20.5579 20.1177 20.6589 19.985C20.76 19.8524 20.9032 19.758 21.065 19.7175L24.26 18.9062C24.6637 18.8037 25.0863 18.8037 25.49 18.9062Z" stroke="black" stroke-width="1.875" stroke-linecap="round" stroke-linejoin="round"/>
</g>
<defs>
<clipPath id="clip0_3_4920">
<rect width="30" height="30" fill="white" transform="translate(0.5)"/>
</clipPath>
</defs>
</svg>
