<svg width="16" height="17" viewBox="0 0 16 17" fill="none" xmlns="http://www.w3.org/2000/svg">
<path d="M13.9999 14.4999L9.99992 10.5M2 7.16668C2 7.77951 2.12071 8.38634 2.35523 8.95252C2.58974 9.5187 2.93349 10.0331 3.36682 10.4665C3.80016 10.8998 4.3146 11.2436 4.88078 11.4781C5.44696 11.7126 6.05379 11.8333 6.66662 11.8333C7.27945 11.8333 7.88628 11.7126 8.45246 11.4781C9.01864 11.2436 9.53308 10.8998 9.96642 10.4665C10.3998 10.0331 10.7435 9.5187 10.978 8.95252C11.2125 8.38634 11.3332 7.77951 11.3332 7.16668C11.3332 6.55385 11.2125 5.94702 10.978 5.38084C10.7435 4.81466 10.3998 4.30022 9.96642 3.86688C9.53308 3.43355 9.01864 3.08981 8.45246 2.85529C7.88628 2.62077 7.27945 2.50006 6.66662 2.50006C6.05379 2.50006 5.44696 2.62077 4.88078 2.85529C4.3146 3.08981 3.80016 3.43355 3.36682 3.86688C2.93349 4.30022 2.58974 4.81466 2.35523 5.38084C2.12071 5.94702 2 6.55385 2 7.16668Z" stroke="#F7C04A" stroke-width="0.99999" stroke-linecap="round" stroke-linejoin="round"/>
</svg>
