<svg width="41" height="41" viewBox="0 0 41 41" fill="none" xmlns="http://www.w3.org/2000/svg">
<path d="M9.10937 0.0385742H31.7308C36.5795 0.0385742 40.5001 3.96784 40.5001 8.80785V31.4293C40.5001 36.278 36.5708 40.1986 31.7308 40.1986H9.10937C4.26068 40.1986 0.340102 36.2693 0.340102 31.4293V8.80785C0.331428 3.96784 4.26068 0.0385742 9.10937 0.0385742Z" fill="#34AADF"/>
<path d="M9.31583 18.8738C9.31583 18.8738 20.4425 14.1845 24.305 12.5426C25.7815 11.8812 30.8015 9.76688 30.8015 9.76688C30.8015 9.76688 33.1166 8.84555 32.9276 11.0898C32.8685 12.0111 32.3488 15.2475 31.8291 18.7438C31.0613 23.693 30.2227 29.1028 30.2227 29.1028C30.2227 29.1028 30.0928 30.6265 29.0061 30.8864C27.9076 31.1462 26.1122 29.965 25.7933 29.6934C25.5334 29.4926 20.9741 26.5278 19.2968 25.075C18.8479 24.6734 18.3282 23.882 19.3559 22.9607C21.671 20.7873 24.4349 18.0706 26.1122 16.3578C26.88 15.5665 27.6595 13.712 24.4349 15.9562C19.8638 19.1927 15.3635 22.2283 15.3635 22.2283C15.3635 22.2283 14.3358 22.8898 12.4105 22.2992C10.4852 21.7086 8.22913 20.9172 8.22913 20.9172C8.22913 20.9172 6.6818 19.9368 9.31583 18.8738Z" fill="white"/>
</svg>
