<svg width="41" height="41" viewBox="0 0 41 41" fill="none" xmlns="http://www.w3.org/2000/svg">
<path d="M9.4293 0.0385742H32.0508C36.8994 0.0385742 40.82 3.96783 40.82 8.80785V31.4293C40.82 36.278 36.8908 40.1986 32.0508 40.1986H9.4293C4.58061 40.1986 0.660034 36.2693 0.660034 31.4293V8.80785C0.660034 3.95916 4.58061 0.0385742 9.4293 0.0385742Z" fill="#00D95F"/>
<path d="M6.81628 33.9371L8.80887 26.5189C7.2004 23.6261 6.69628 20.2651 7.36847 17.0242C8.05267 13.7952 9.8772 10.9144 12.506 8.9098C15.1467 6.90522 18.4117 5.93294 21.7126 6.13699C25.0136 6.35306 28.1345 7.74546 30.4872 10.0621C32.8399 12.3788 34.2803 15.4757 34.5324 18.7647C34.7844 22.0536 33.8482 25.3306 31.8796 27.9954C29.911 30.6481 27.0542 32.5087 23.8253 33.2289C20.5963 33.9491 17.2113 33.481 14.2945 31.9205L6.81628 33.9371ZM14.6666 29.1597L15.1347 29.4358C17.2474 30.6842 19.7081 31.2003 22.1448 30.9002C24.5815 30.6001 26.8502 29.5078 28.6027 27.7913C30.3552 26.0748 31.4835 23.8302 31.8196 21.4055C32.1557 18.9807 31.6756 16.508 30.4632 14.3834C29.2508 12.2588 27.3663 10.5903 25.0976 9.64202C22.829 8.69374 20.3202 8.52569 17.9555 9.16187C15.5788 9.78606 13.4902 11.1905 11.9898 13.135C10.5014 15.0796 9.68515 17.4563 9.69715 19.905C9.69715 21.9336 10.2613 23.9262 11.3176 25.6547L11.6057 26.1348L10.4894 30.276L14.6666 29.1597Z" fill="white"/>
<path fill-rule="evenodd" clip-rule="evenodd" d="M25.9197 21.8133C25.6436 21.5972 25.3315 21.4412 24.9954 21.3692C24.6593 21.2972 24.2992 21.2972 23.9631 21.3692C23.459 21.5852 23.1229 22.3775 22.7988 22.7856C22.7268 22.8816 22.6307 22.9536 22.5107 22.9777C22.3907 23.0017 22.2706 22.9897 22.1746 22.9296C20.3021 22.1974 18.7416 20.865 17.7333 19.1245C17.6493 19.0165 17.6013 18.8845 17.6133 18.7404C17.6253 18.6084 17.6973 18.4763 17.7933 18.3803C18.1654 18.0202 18.4295 17.5641 18.5736 17.0719C18.6096 16.5198 18.4775 15.9796 18.2135 15.4995C18.0094 14.8273 17.6133 14.2391 17.0731 13.783C16.797 13.6629 16.4849 13.6149 16.1968 13.6629C15.8968 13.7109 15.6207 13.843 15.3926 14.047C14.9965 14.3831 14.6844 14.8033 14.4804 15.2834C14.2763 15.7635 14.1803 16.2677 14.1923 16.7958C14.1923 17.0839 14.2283 17.372 14.3003 17.6601C14.4804 18.3323 14.7685 18.9805 15.1286 19.5807C15.3926 20.0368 15.6807 20.4809 16.0048 20.901C17.0251 22.2934 18.3095 23.4818 19.7859 24.3941C20.5301 24.8622 21.3104 25.2343 22.1386 25.5104C22.9908 25.8945 23.9391 26.0505 24.8754 25.9425C25.4035 25.8585 25.9077 25.6544 26.3398 25.3303C26.7719 25.0062 27.12 24.5861 27.3481 24.106C27.4802 23.8179 27.5282 23.4818 27.4682 23.1697C27.3241 22.5095 26.4478 22.1254 25.9197 21.8133Z" fill="white"/>
</svg>
