<svg width="41" height="41" viewBox="0 0 41 41" fill="none" xmlns="http://www.w3.org/2000/svg">
<path d="M9.26928 0.0385742H31.8907C36.7394 0.0385742 40.66 3.96783 40.66 8.80785V31.4293C40.66 36.278 36.7307 40.1986 31.8907 40.1986H9.26928C4.42059 40.1986 0.5 36.2693 0.5 31.4293V8.80785C0.5 3.95916 4.42059 0.0385742 9.26928 0.0385742Z" fill="black"/>
<g clip-path="url(#clip0_3_3143)">
<path d="M28.3133 8.33838H32.4628L23.3971 18.7004L34.0625 32.8003H25.7113L19.1708 24.2485L11.6867 32.8003H7.53433L17.2311 21.7172L7 8.33838H15.5627L21.475 16.1548L28.3133 8.33838ZM26.8567 30.3164H29.1563L14.3134 10.6919H11.846L26.8567 30.3164Z" fill="white"/>
</g>
<defs>
<clipPath id="clip0_3_3143">
<rect width="27" height="24" fill="white" transform="translate(7 8.33838)"/>
</clipPath>
</defs>
</svg>
